<svg xmlns="http://www.w3.org/2000/svg" viewBox="0 0 640 260" width="640" height="260" font-family="system-ui, -apple-system, Segoe UI, sans-serif" role="img" aria-label="Evictor NFS metadata ops/s (5 s windows)">
<rect width="640" height="260" rx="8" fill="#fcfcfb"/>
<text x="48" y="18" font-size="13" font-weight="600" fill="#0b0b0b">Evictor NFS metadata ops/s (5 s windows)</text>
<line x1="599" x2="613" y1="14" y2="14" stroke="#1baf7a" stroke-width="2"/>
<text x="617" y="18" font-size="11" fill="#52514e">c</text>
<line x1="570" x2="584" y1="14" y2="14" stroke="#eb6834" stroke-width="2"/>
<text x="588" y="18" font-size="11" fill="#52514e">b</text>
<line x1="541" x2="555" y1="14" y2="14" stroke="#2a78d6" stroke-width="2"/>
<text x="559" y="18" font-size="11" fill="#52514e">a</text>
<line x1="48" x2="568" y1="232.0" y2="232.0" stroke="#c3c2b7" stroke-width="1"/>
<text x="42" y="236.0" text-anchor="end" font-size="11" fill="#898781">0</text>
<line x1="48" x2="568" y1="145.9" y2="145.9" stroke="#e1e0d9" stroke-width="1"/>
<text x="42" y="149.9" text-anchor="end" font-size="11" fill="#898781">10,000</text>
<line x1="48" x2="568" y1="59.8" y2="59.8" stroke="#e1e0d9" stroke-width="1"/>
<text x="42" y="63.8" text-anchor="end" font-size="11" fill="#898781">20,000</text>
<text x="150.7" y="252" text-anchor="middle" font-size="11" fill="#898781">250s</text>
<text x="255.4" y="252" text-anchor="middle" font-size="11" fill="#898781">500s</text>
<text x="360.2" y="252" text-anchor="middle" font-size="11" fill="#898781">750s</text>
<text x="465.0" y="252" text-anchor="middle" font-size="11" fill="#898781">1,000s</text>
<path d="M48.0,231.8L50.1,231.7L52.2,231.8L54.3,213.7L56.4,186.4L58.5,161.3L60.6,158.1L62.7,150.9L64.8,152.2L66.9,160.3L69.0,132.5L71.0,81.8L73.1,77.9L75.2,112.8L77.3,132.0L79.4,99.8L81.5,59.6L83.6,69.5L85.7,149.2L87.8,129.3L89.9,91.1L92.0,48.6L94.1,76.2L96.2,95.1L98.3,107.4L100.4,52.8L102.5,57.7L104.6,91.8L106.7,94.7L108.8,79.9L110.9,95.1L113.0,58.4L115.0,101.0L117.1,96.5L119.2,82.4L121.3,83.2L123.4,54.0L125.5,95.8L127.6,97.9L129.7,106.7L131.8,79.0L133.9,53.2L136.0,100.8L138.1,77.3L140.2,103.7L142.3,66.7L144.4,88.0L146.5,50.3L148.6,64.6L150.7,98.3L152.8,86.7L154.9,82.9L157.0,40.4L159.0,72.6L161.1,90.5L163.2,91.1L165.3,59.4L167.4,43.3L169.5,93.3L171.6,83.4L173.7,81.2L175.8,65.8L177.9,39.6L180.0,56.3L182.1,91.2L184.2,82.9L186.3,78.3L188.4,50.3L190.5,46.6L192.6,87.2L194.7,85.6L196.8,51.4L198.9,52.9L201.0,85.1L203.0,83.8L205.1,66.9L207.2,64.9L209.3,45.5L211.4,46.4L213.5,90.0L215.6,90.1L217.7,59.5L219.8,47.6L221.9,45.1L224.0,77.6L226.1,127.4L228.2,209.6L230.3,209.0L232.4,209.3L234.5,209.2L236.6,207.6L238.7,205.8L240.8,205.7L242.9,207.2L245.0,206.3L247.0,206.5L249.1,206.6L251.2,205.6L253.3,205.4L255.4,205.7L257.5,204.7L259.6,157.7L261.7,107.5L263.8,114.2L265.9,78.4L268.0,99.2L270.1,89.2L272.2,94.5L274.3,81.0L276.4,117.6L278.5,94.7L280.6,57.9L282.7,44.2L284.8,63.7L286.9,92.6L289.0,140.1L291.0,203.1L293.1,205.5L295.2,205.8L297.3,203.4L299.4,200.8L301.5,200.3L303.6,200.8L305.7,179.1L307.8,130.8L309.9,109.1L312.0,143.0L314.1,93.1L316.2,64.2L318.3,92.8L320.4,114.2L322.5,104.8L324.6,68.9L326.7,44.0L328.8,43.5L330.9,73.2L333.0,92.9L335.0,107.9L337.1,203.2L339.2,203.2L341.3,202.6L343.4,198.9L345.5,194.3L347.6,192.9L349.7,207.8L351.8,199.1L353.9,135.0L356.0,100.3L358.1,106.0L360.2,87.2L362.3,83.3L364.4,100.7L366.5,90.5L368.6,70.7L370.7,69.4L372.8,43.6L374.9,63.8L377.0,103.2L379.1,98.0L381.1,57.1L383.2,213.7L385.3,209.6L387.4,208.0L389.5,205.4L391.6,198.5L393.7,198.3L395.8,200.2L397.9,198.5L400.0,195.5L402.1,198.8L404.2,145.7L406.3,90.4L408.4,95.5L410.5,109.9L412.6,81.6L414.7,104.6L416.8,86.1L418.9,78.5L421.0,80.6L423.1,110.0L425.1,94.3L427.2,48.1L429.3,44.5L431.4,51.2L433.5,81.4L435.6,99.5L437.7,172.4L439.8,206.8L441.9,203.7L444.0,201.3L446.1,201.5L448.2,202.6L450.3,206.4L452.4,209.2L454.5,209.1L456.6,197.9L458.7,148.4L460.8,130.5L462.9,131.4L465.0,73.0L467.1,82.2L469.1,98.3L471.2,111.5L473.3,89.0L475.4,41.2L477.5,48.0L479.6,57.9L481.7,85.4L483.8,158.6L485.9,208.3L488.0,201.2L490.1,200.2L492.2,201.2L494.3,203.4L496.4,204.7L498.5,199.3L500.6,197.5L502.7,197.1L504.8,155.8L506.9,142.7L509.0,87.4L511.1,76.4L513.1,82.3L515.2,95.5L517.3,106.1L519.4,82.0L521.5,49.4L523.6,47.8L525.7,61.8L527.8,95.5L529.9,89.8L532.0,55.3L534.1,41.8L536.2,54.1L538.3,145.3L540.4,207.7L542.5,204.8L544.6,203.7L546.7,206.4L548.8,205.0L550.9,203.7L553.0,203.0L555.1,197.3" fill="none" stroke="#2a78d6" stroke-width="2" stroke-linejoin="round" stroke-linecap="round"/>
<text x="572" y="201.3" font-size="11" fill="#52514e">a</text>
<path d="M48.3,232.0L50.3,231.9L52.4,232.0L54.5,232.0L56.6,232.0L58.7,232.0L60.8,232.0L62.9,232.0L65.0,173.6L67.1,232.0L69.2,232.0L71.3,232.0L73.4,232.0L75.5,232.0L77.6,232.0L79.7,232.0L81.8,232.0L83.9,232.0L86.0,232.0L88.1,232.0L90.2,199.4L92.3,165.2L94.3,232.0L96.4,232.0L98.5,232.0L100.6,232.0L102.7,232.0L104.8,232.0L106.9,232.0L109.0,232.0L111.1,232.0L113.2,232.0L115.3,232.0L117.4,219.9L119.5,232.0L121.6,232.0L123.7,232.0L125.8,232.0L127.9,232.0L130.0,232.0L132.1,232.0L134.2,232.0L136.3,232.0L138.3,232.0L140.4,232.0L142.5,232.0L144.6,232.0L146.7,232.0L148.8,232.0L150.9,232.0L153.0,232.0L155.1,232.0L157.2,232.0L159.3,232.0L161.4,232.0L163.5,232.0L165.6,232.0L167.7,232.0L169.8,232.0L171.9,232.0L174.0,232.0L176.1,232.0L178.2,232.0L180.3,232.0L182.3,232.0L184.4,232.0L186.5,232.0L188.6,232.0L190.7,232.0L192.8,232.0L194.9,232.0L197.0,232.0L199.1,232.0L201.2,232.0L203.3,232.0L205.4,232.0L207.5,232.0L209.6,232.0L211.7,232.0L213.8,232.0L215.9,232.0L218.0,232.0L220.1,197.7L222.2,181.4L224.3,207.8L226.3,208.4L228.4,208.4L230.5,209.2L232.6,208.3L234.7,208.9L236.8,208.1L238.9,209.5L241.0,209.3L243.1,208.7L245.2,209.0L247.3,208.1L249.4,208.4L251.5,208.8L253.6,208.1L255.7,209.4L257.8,209.0L259.9,207.8L262.0,211.5L264.1,225.4L266.2,225.3L268.3,225.5L270.3,225.5L272.4,225.5L274.5,230.2L276.6,232.0L278.7,232.0L280.8,232.0L282.9,232.0L285.0,232.0L287.1,232.0L289.2,232.0L291.3,231.8L293.4,209.6L295.5,208.9L297.6,209.3L299.7,208.3L301.8,208.0L303.9,207.6L306.0,206.8L308.1,206.7L310.2,207.5L312.3,206.4L314.3,206.8L316.4,206.5L318.5,206.8L320.6,205.5L322.7,207.4L324.8,207.3L326.9,206.2L329.0,207.1L331.1,226.0L333.2,225.8L335.3,225.8L337.4,231.0L339.5,232.0L341.6,232.0L343.7,232.0L345.8,232.0L347.9,232.0L350.0,232.0L352.1,232.0L354.2,232.0L356.3,213.2L358.3,208.6L360.4,209.0L362.5,208.5L364.6,208.9L366.7,209.6L368.8,209.1L370.9,208.8L373.0,207.8L375.1,206.9L377.2,205.7L379.3,206.3L381.4,205.4L383.5,205.7L385.6,205.2L387.7,204.5L389.8,203.9L391.9,205.3L394.0,223.3L396.1,225.7L398.2,225.0L400.3,225.2L402.3,230.5L404.4,232.0L406.5,232.0L408.6,232.0L410.7,232.0L412.8,232.0L414.9,232.0L417.0,232.0L419.1,232.0L421.2,232.0L423.3,214.5L425.4,209.9L427.5,208.5L429.6,208.7L431.7,209.3L433.8,208.5L435.9,209.0L438.0,209.6L440.1,207.6L442.2,207.7L444.3,207.2L446.3,206.9L448.4,207.8L450.5,208.5L452.6,207.6L454.7,207.2L456.8,207.1L458.9,206.4L461.0,206.3L463.1,206.3L465.2,206.5L467.3,207.1L469.4,220.5L471.5,225.5L473.6,225.3L475.7,227.8L477.8,232.0L479.9,232.0L482.0,232.0L484.1,232.0L486.2,232.0L488.3,232.0L490.3,232.0L492.4,232.0L494.5,232.0L496.6,232.0L498.7,220.3L500.8,208.4L502.9,207.7L505.0,207.6L507.1,207.8L509.2,208.4L511.3,207.6L513.4,208.0L515.5,207.1L517.6,205.0L519.7,205.9L521.8,206.7L523.9,205.8L526.0,206.2L528.1,205.8L530.2,207.0L532.3,206.7L534.4,207.1L536.4,216.1L538.5,225.9L540.6,225.4L542.7,227.8L544.8,232.0L546.9,232.0L549.0,232.0L551.1,232.0L553.2,232.0L555.3,232.0L557.4,232.0L559.5,232.0L561.6,232.0L563.7,232.0L565.8,232.0L567.9,232.0" fill="none" stroke="#eb6834" stroke-width="2" stroke-linejoin="round" stroke-linecap="round"/>
<text x="572" y="236.0" font-size="11" fill="#52514e">b</text>
<path d="M48.4,232.0L50.5,232.0L52.6,232.0L54.7,232.0L56.8,232.0L58.9,232.0L60.9,232.0L63.0,232.0L65.1,232.0L67.2,232.0L69.3,232.0L71.4,232.0L73.5,232.0L75.6,232.0L77.7,232.0L79.8,232.0L81.9,232.0L84.0,232.0L86.1,232.0L88.2,232.0L90.3,232.0L92.4,232.0L94.5,232.0L96.6,232.0L98.7,232.0L100.8,232.0L102.9,232.0L104.9,232.0L107.0,232.0L109.1,232.0L111.2,232.0L113.3,232.0L115.4,232.0L117.5,232.0L119.6,232.0L121.7,232.0L123.8,232.0L125.9,232.0L128.0,232.0L130.1,232.0L132.2,232.0L134.3,232.0L136.4,232.0L138.5,232.0L140.6,232.0L142.7,232.0L144.8,232.0L146.9,232.0L148.9,232.0L151.0,232.0L153.1,232.0L155.2,232.0L157.3,232.0L159.4,232.0L161.5,232.0L163.6,232.0L165.7,232.0L167.8,232.0L169.9,232.0L172.0,232.0L174.1,232.0L176.2,232.0L178.3,232.0L180.4,232.0L182.5,232.0L184.6,232.0L186.7,232.0L188.8,232.0L190.9,232.0L192.9,232.0L195.0,232.0L197.1,232.0L199.2,232.0L201.3,232.0L203.4,232.0L205.5,232.0L207.6,232.0L209.7,232.0L211.8,232.0L213.9,232.0L216.0,232.0L218.1,232.0L220.2,232.0L222.3,232.0L224.4,232.0L226.5,232.0L228.6,232.0L230.7,232.0L232.8,232.0L234.9,232.0L236.9,232.0L239.0,227.4L241.1,220.5L243.2,217.0L245.3,213.6L247.4,210.1L249.5,206.6L251.6,203.4L253.7,200.2L255.8,197.3L257.9,194.4L260.0,191.8L262.1,188.7L264.2,210.9L266.3,232.0L268.4,232.0L270.5,232.0L272.6,232.0L274.7,232.0L276.8,232.0L278.9,232.0L281.0,232.0L283.0,232.0L285.1,232.0L287.2,232.0L289.3,232.0L291.4,232.0L293.5,214.1L295.6,182.3L297.7,181.6L299.8,178.6L301.9,176.9L304.0,175.2L306.1,197.0L308.2,232.0L310.3,232.0L312.4,232.0L314.5,232.0L316.6,232.0L318.7,232.0L320.8,232.0L322.9,232.0L325.0,232.0L327.0,232.0L329.1,232.0L331.2,232.0L333.3,232.0L335.4,232.0L337.5,232.0L339.6,232.0L341.7,232.0L343.8,232.0L345.9,232.0L348.0,232.0L350.1,232.0L352.2,232.0L354.3,232.0L356.4,217.4L358.5,169.9L360.6,169.0L362.7,168.9L364.8,184.7L366.9,232.0L369.0,232.0L371.0,232.0L373.1,232.0L375.2,232.0L377.3,232.0L379.4,232.0L381.5,232.0L383.6,232.0L385.7,232.0L387.8,232.0L389.9,232.0L392.0,232.0L394.1,232.0L396.2,232.0L398.3,232.0L400.4,232.0L402.5,225.5L404.6,174.4L406.7,190.7L408.8,189.5L410.9,187.9L413.0,185.8L415.0,189.0L417.1,232.0L419.2,232.0L421.3,232.0L423.4,232.0L425.5,232.0L427.6,232.0L429.7,232.0L431.8,232.0L433.9,232.0L436.0,232.0L438.1,232.0L440.2,232.0L442.3,232.0L444.4,232.0L446.5,232.0L448.6,232.0L450.7,232.0L452.8,232.0L454.9,232.0L457.0,232.0L459.0,180.1L461.1,175.7L463.2,174.6L465.3,173.3L467.4,230.0L469.5,232.0L471.6,232.0L473.7,232.0L475.8,232.0L477.9,232.0L480.0,232.0L482.1,232.0L484.2,232.0L486.3,232.0L488.4,232.0L490.5,232.0L492.6,232.0L494.7,232.0L496.8,232.0L498.9,232.0L501.0,174.0L503.0,168.3L505.1,167.6L507.2,166.8L509.3,227.6L511.4,232.0L513.5,232.0L515.6,232.0L517.7,232.0L519.8,232.0L521.9,232.0L524.0,232.0L526.1,232.0L528.2,232.0L530.3,232.0L532.4,232.0L534.5,232.0L536.6,232.0L538.7,232.0L540.8,232.0L542.9,232.0L545.0,232.0L547.0,232.0L549.1,232.0L551.2,232.0L553.3,232.0L555.4,178.9L557.5,163.2L559.6,163.7L561.7,163.4L563.8,217.8L565.9,232.0L568.0,232.0" fill="none" stroke="#1baf7a" stroke-width="2" stroke-linejoin="round" stroke-linecap="round"/>
<text x="572" y="248.0" font-size="11" fill="#52514e">c</text>
</svg>