<svg xmlns="http://www.w3.org/2000/svg" viewBox="0 0 640 260" width="640" height="260" font-family="system-ui, -apple-system, Segoe UI, sans-serif" role="img" aria-label="vLLM LOOKUP RTT (mean ms per op, 10 s windows)">
<rect width="640" height="260" rx="8" fill="#fcfcfb"/>
<text x="48" y="18" font-size="13" font-weight="600" fill="#0b0b0b">vLLM LOOKUP RTT (mean ms per op, 10 s windows)</text>
<line x1="599" x2="613" y1="14" y2="14" stroke="#1baf7a" stroke-width="2"/>
<text x="617" y="18" font-size="11" fill="#52514e">e</text>
<line x1="570" x2="584" y1="14" y2="14" stroke="#eb6834" stroke-width="2"/>
<text x="588" y="18" font-size="11" fill="#52514e">d</text>
<line x1="541" x2="555" y1="14" y2="14" stroke="#2a78d6" stroke-width="2"/>
<text x="559" y="18" font-size="11" fill="#52514e">c</text>
<line x1="48" x2="568" y1="232.0" y2="232.0" stroke="#c3c2b7" stroke-width="1"/>
<text x="42" y="236.0" text-anchor="end" font-size="11" fill="#898781">0 ms</text>
<line x1="48" x2="568" y1="137.1" y2="137.1" stroke="#e1e0d9" stroke-width="1"/>
<text x="42" y="141.1" text-anchor="end" font-size="11" fill="#898781">0.5 ms</text>
<line x1="48" x2="568" y1="42.3" y2="42.3" stroke="#e1e0d9" stroke-width="1"/>
<text x="42" y="46.3" text-anchor="end" font-size="11" fill="#898781">1 ms</text>
<text x="145.8" y="252" text-anchor="middle" font-size="11" fill="#898781">250s</text>
<text x="252.3" y="252" text-anchor="middle" font-size="11" fill="#898781">500s</text>
<text x="358.8" y="252" text-anchor="middle" font-size="11" fill="#898781">750s</text>
<text x="465.3" y="252" text-anchor="middle" font-size="11" fill="#898781">1,000s</text>
<path d="M48.3,167.1L52.5,157.8L56.8,164.1L61.0,162.6L65.3,166.9L69.6,163.3L73.8,165.0L78.1,166.0L82.3,165.8L86.6,171.7L90.9,163.5L95.1,164.8M103.6,167.7M112.2,167.7L116.4,169.0L120.7,166.4L124.9,167.5M133.5,166.4L137.7,167.5L142.0,168.6L146.2,166.9M154.8,165.0L159.0,171.5L163.3,167.3L167.5,169.8M176.1,166.2M184.6,166.0L188.8,167.9L193.1,167.5L197.4,166.7M205.9,167.3L210.1,173.9L214.4,164.5L218.6,166.0M227.2,168.4L231.4,123.7L235.7,168.4L239.9,160.3L244.2,153.8L248.5,161.0L252.7,117.6L257.0,169.2L261.2,153.3L265.5,155.7L269.8,162.4L274.0,132.6L278.3,164.1L282.5,138.8L286.8,163.3L291.1,164.5M299.6,166.4L303.8,136.2L308.1,161.4L312.4,160.1M320.9,164.1L325.1,123.9L329.4,159.3L333.7,159.7M342.2,162.6L346.4,147.2L350.7,158.4L355.0,158.0M363.5,160.7L367.7,142.3L372.0,150.0L376.3,158.2M384.8,157.8L389.0,162.0L393.3,128.6L397.6,162.0L401.8,167.9L406.1,155.0L410.3,154.6L414.6,121.2L418.9,155.4L423.1,163.7L427.4,141.1L431.6,158.4L435.9,115.3L440.2,158.0L444.4,164.8L448.7,134.1L452.9,161.0L457.2,150.0L461.5,151.6L465.7,164.1L470.0,117.8L474.2,155.2L478.5,142.8L482.8,143.6L487.0,158.0L491.3,119.1L495.5,39.6L499.8,109.6L504.1,162.9L508.3,148.1L512.6,155.2L516.8,116.1L521.1,147.2L525.4,156.1M533.9,158.4L538.1,161.8L542.4,149.8L546.7,156.3M555.2,151.7L559.4,149.1L563.7,115.3L568.0,117.2" fill="none" stroke="#2a78d6" stroke-width="2" stroke-linejoin="round" stroke-linecap="round"/>
<text x="572" y="121.2" font-size="11" fill="#52514e">c</text>
<path d="M48.3,168.4L52.6,168.1L56.8,162.9L61.1,162.8L65.3,168.3L69.6,161.6L73.9,164.5L78.1,167.7L82.4,165.0L86.6,171.3L90.9,160.5L95.2,164.8M103.7,161.2L107.9,171.9L112.2,165.6L116.5,170.1M125.0,168.3L129.2,174.9L133.5,168.1L137.8,168.4L142.0,167.3L146.3,165.2M154.8,167.7L159.1,170.1L163.3,166.5L167.6,166.0M176.1,168.1M184.6,168.3L188.9,166.9M197.4,168.1M205.9,167.3L210.2,169.2M218.7,166.2M227.2,166.7L231.5,166.7L235.7,167.9L240.0,169.4L244.3,121.8L248.5,164.6L252.8,151.9L257.0,165.6L261.3,166.7L265.6,129.2L269.8,164.1L274.1,155.9L278.3,165.8L282.6,167.3L286.8,129.5L291.1,166.0L295.4,166.5L299.6,164.6L303.9,166.0L308.1,114.6L312.4,163.5L316.7,139.6L320.9,166.7L325.2,164.8L329.4,122.5L333.7,164.8L338.0,129.7L342.2,166.0L346.5,165.4L350.7,161.2L355.0,164.5L359.3,120.3L363.5,163.3L367.8,151.2L372.0,128.8L376.3,155.9L380.6,145.1L384.8,160.5L389.1,159.5L393.3,113.0L397.6,157.6L401.9,162.9L406.1,157.6L410.4,163.1L414.6,127.5L418.9,155.7L423.2,162.0M431.7,157.8L435.9,127.1L440.2,151.0L444.5,163.3M453.0,160.7L457.2,163.7L461.5,144.9L465.8,156.9M474.3,156.5L478.5,150.8L482.8,115.5L487.1,160.7L491.3,167.3L495.6,159.7L499.8,160.7L504.1,125.4L508.4,156.1L512.6,161.0L516.9,121.2L521.1,156.1L525.4,136.6L529.7,157.1L533.9,163.5L538.2,105.5L542.4,159.7L546.7,164.3L551.0,152.7L555.2,159.1L559.5,114.0L563.7,112.9L568.0,111.3" fill="none" stroke="#eb6834" stroke-width="2" stroke-linejoin="round" stroke-linecap="round"/>
<text x="572" y="139.3" font-size="11" fill="#52514e">d</text>
<path d="M48.0,170.3L52.3,163.3L56.5,162.0L60.8,161.6L65.0,162.6L69.3,160.3L73.6,164.5L77.8,166.9L82.1,164.6L86.3,165.8L90.6,232.0L94.9,162.4L99.1,152.3L103.4,167.3L107.6,167.3L111.9,166.9L116.2,167.5M124.7,167.7L128.9,174.7L133.2,165.4L137.5,168.1M146.0,165.8L150.2,174.5L154.5,165.0L158.8,168.6M167.3,166.2L171.5,172.8L175.8,163.3L180.1,165.0M188.6,164.6L192.8,168.8L197.1,166.0L201.4,167.3M209.9,165.4L214.1,167.1L218.4,159.0L222.7,162.9M231.2,165.6L235.4,168.4L239.7,165.2L244.0,165.8L248.2,121.4L252.5,163.3L256.7,167.3L261.0,160.5L265.3,165.4L269.5,101.5L273.8,166.4L278.0,167.9M286.6,166.9L290.8,169.8L295.1,161.8L299.3,166.9M307.9,164.1L312.1,158.4L316.4,163.7L320.6,165.0M329.2,165.6L333.4,167.9L337.7,164.8L341.9,163.9M350.4,167.5L354.7,164.1L359.0,159.0L363.2,165.8M371.7,164.5L376.0,162.9L380.3,158.4L384.5,161.6M393.0,162.4L397.3,164.3L401.6,42.3L405.8,161.0L410.1,170.1L414.3,163.3L418.6,161.0L422.9,129.5L427.1,162.8L431.4,169.2L435.6,161.6L439.9,161.8L444.2,126.3L448.4,163.3L452.7,166.9L456.9,107.9L461.2,157.8L465.5,127.8L469.7,158.6L474.0,164.5L478.2,129.0L482.5,161.0L486.8,147.4L491.0,156.1L495.3,164.6L499.5,118.2L503.8,152.9L508.1,154.2L512.3,122.1L516.6,160.9L520.8,151.9L525.1,156.1L529.4,156.9L533.6,127.1L537.9,162.0L542.1,166.4L546.4,141.5L550.7,155.9L554.9,125.0L559.2,167.7L563.4,168.3" fill="none" stroke="#1baf7a" stroke-width="2" stroke-linejoin="round" stroke-linecap="round"/>
<text x="572" y="172.3" font-size="11" fill="#52514e">e</text>
</svg>